<svg xmlns="http://www.w3.org/2000/svg" viewBox="0 0 758.21 423.06"><defs><style>.a,.au{fill:#30537f;}.b{font-size:18px;fill:#231f20;font-family:Lato-Bold, Lato;}.c{font-weight:700;}.d{letter-spacing:-0.01em;}.e{letter-spacing:-0.03em;}.f{letter-spacing:0em;}.g{letter-spacing:-0.01em;}.h{letter-spacing:-0.02em;}.i{letter-spacing:-0.01em;}.j{letter-spacing:-0.02em;}.k{letter-spacing:-0.03em;}.l{letter-spacing:0em;}.m{letter-spacing:0em;}.n{letter-spacing:0em;}.o{letter-spacing:0.01em;}.p{letter-spacing:-0.02em;}.q{letter-spacing:-0.01em;}.r{font-size:14px;font-family:Lato-Regular, Lato;}.s{letter-spacing:-0.02em;}.t{letter-spacing:0em;}.u{letter-spacing:0em;}.v{letter-spacing:-0.01em;}.w{letter-spacing:-0.02em;}.x{letter-spacing:-0.02em;}.y{letter-spacing:-0.01em;}.z{letter-spacing:0em;}.aa{letter-spacing:0.01em;}.ab{letter-spacing:0.01em;}.ac{letter-spacing:0em;}.ad{letter-spacing:-0.01em;}.ae{letter-spacing:-0.01em;}.af{letter-spacing:-0.01em;}.ag{letter-spacing:-0.02em;}.ah{letter-spacing:-0.02em;}.ai{letter-spacing:-0.01em;}.aj{letter-spacing:-0.01em;}.ak{letter-spacing:-0.02em;}.al{letter-spacing:0.05em;}.am{letter-spacing:0em;}.an{letter-spacing:-0.02em;}.ao{letter-spacing:0em;}.ap{letter-spacing:-0.02em;}.aq{letter-spacing:0em;}.ar{letter-spacing:-0.01em;}.as{letter-spacing:-0.01em;}.at{letter-spacing:-0.02em;}.au,.ax,.ay,.az{font-size:24px;font-family:Lato-Light, Lato;}.av{letter-spacing:0em;}.aw{letter-spacing:-0.02em;}.ax,.ba{fill:#476c72;}.ay,.bv{fill:#7aa640;}.az,.cj{fill:#f3b61b;}.bb{letter-spacing:0em;}.bc{letter-spacing:-0.02em;}.bd{letter-spacing:-0.01em;}.be{letter-spacing:0.01em;}.bf{letter-spacing:-0.03em;}.bg{letter-spacing:0em;}.bh{letter-spacing:-0.02em;}.bi{letter-spacing:0em;}.bj{letter-spacing:-0.01em;}.bk{letter-spacing:-0.01em;}.bl{letter-spacing:-0.01em;}.bm{letter-spacing:-0.01em;}.bn{letter-spacing:-0.01em;}.bo{letter-spacing:-0.02em;}.bp{letter-spacing:-0.02em;}.bq{letter-spacing:-0.01em;}.br{letter-spacing:-0.01em;}.bs{letter-spacing:-0.01em;}.bt{letter-spacing:-0.02em;}.bu{letter-spacing:-0.01em;}.bw{letter-spacing:0em;}.bx{letter-spacing:-0.01em;}.by{letter-spacing:0.02em;}.bz{letter-spacing:-0.09em;}.ca{letter-spacing:-0.01em;}.cb{letter-spacing:0em;}.cc{letter-spacing:-0.01em;}.cd{letter-spacing:-0.01em;}.ce{letter-spacing:0em;}.cf{letter-spacing:0em;}.cg{letter-spacing:-0.02em;}.ch{letter-spacing:-0.01em;}.ci{letter-spacing:-0.01em;}.ck{letter-spacing:0.01em;}.cl{letter-spacing:0.02em;}.cm{letter-spacing:0em;}.cn{letter-spacing:0em;}.co{letter-spacing:-0.01em;}.cp{letter-spacing:-0.03em;}.cq{letter-spacing:-0.01em;}.cr{letter-spacing:-0.01em;}.cs{letter-spacing:0em;}.ct{letter-spacing:-0.02em;}.cu{letter-spacing:-0.02em;}.cv{letter-spacing:-0.01em;}.cw{letter-spacing:-0.01em;}.cx{letter-spacing:-0.02em;}.cy{letter-spacing:-0.02em;}.cz{letter-spacing:-0.02em;}.da{letter-spacing:-0.01em;}.db{letter-spacing:-0.01em;}.dc{letter-spacing:-0.02em;}.dd{letter-spacing:-0.01em;}.de{letter-spacing:-0.02em;}.df{letter-spacing:0.05em;}.dg{letter-spacing:-0.01em;}.dh{letter-spacing:-0.01em;}.di{letter-spacing:-0.02em;}.dj{letter-spacing:-0.02em;}.dk{letter-spacing:-0.01em;}.dl{letter-spacing:-0.01em;}.dm{fill:none;stroke:#e98c25;stroke-miterlimit:10;}.dn{fill:#e98c25;}</style></defs><title>Dok</title><polygon class="a" points="16.87 294 180 294 180 276 0 276 0 420 16.87 420 16.87 294"/><text class="b" transform="translate(27.01 320.13)"><tspan class="c"><tspan class="d">R</tspan><tspan class="e" x="11.57" y="0">E</tspan><tspan class="f" x="21.37" y="0">C</tspan><tspan class="g" x="33.41" y="0">A</tspan><tspan class="h" x="46.08" y="0">L</tspan><tspan x="55.11" y="0">L &amp; </tspan><tspan class="d" x="0" y="21.6">R</tspan><tspan class="i" x="11.57" y="21.6">E</tspan><tspan class="j" x="21.63" y="21.6">P</tspan><tspan class="k" x="32.46" y="21.6">R</tspan><tspan class="l" x="43.8" y="21.6">O</tspan><tspan class="m" x="58.14" y="21.6">D</tspan><tspan class="n" x="71.52" y="21.6">U</tspan><tspan class="o" x="84.61" y="21.6">C</tspan><tspan class="p" x="96.91" y="21.6">T</tspan><tspan class="q" x="107.27" y="21.6">I</tspan><tspan class="l" x="112.75" y="21.6">O</tspan><tspan x="127.1" y="21.6">N</tspan></tspan><tspan class="r"><tspan x="0" y="42.6">· </tspan><tspan class="s" x="6.52" y="42.6">R</tspan><tspan class="t" x="15.21" y="42.6">e</tspan><tspan class="u" x="22.5" y="42.6">c</tspan><tspan class="v" x="29.05" y="42.6">a</tspan><tspan class="w" x="35.96" y="42.6">l</tspan><tspan x="39.21" y="42.6">l </tspan><tspan class="x" x="45.49" y="42.6">o</tspan><tspan x="53.05" y="42.6">f </tspan><tspan class="y" x="60.47" y="42.6">f</tspan><tspan class="z" x="65.11" y="42.6">a</tspan><tspan class="aa" x="72.18" y="42.6">c</tspan><tspan class="ab" x="78.89" y="42.6">t</tspan><tspan x="84.21" y="42.6">s</tspan><tspan x="0" y="59.4">· </tspan><tspan class="ac" x="6.52" y="59.4">D</tspan><tspan class="ad" x="17.09" y="59.4">e</tspan><tspan class="ae" x="24.33" y="59.4">fi</tspan><tspan class="af" x="32.11" y="59.4">n</tspan><tspan class="ag" x="39.69" y="59.4">i</tspan><tspan class="ah" x="43.02" y="59.4">t</tspan><tspan class="ai" x="47.99" y="59.4">i</tspan><tspan class="aj" x="51.36" y="59.4">o</tspan><tspan x="59.04" y="59.4">n </tspan><tspan class="ak" x="69.52" y="59.4">o</tspan><tspan x="77.08" y="59.4">f </tspan><tspan class="al" x="0" y="76.2" xml:space="preserve">  </tspan><tspan class="am" x="6.8" y="76.2">p</tspan><tspan class="an" x="14.49" y="76.2">r</tspan><tspan class="ao" x="19.86" y="76.2">o</tspan><tspan class="ap" x="27.63" y="76.2">c</tspan><tspan class="aq" x="33.95" y="76.2">e</tspan><tspan class="ar" x="41.24" y="76.2">d</tspan><tspan class="as" x="48.93" y="76.2">u</tspan><tspan class="at" x="56.52" y="76.2">r</tspan><tspan x="61.9" y="76.2">e</tspan></tspan></text><text class="au" transform="translate(54.35 253.23)"><tspan class="av">D</tspan><tspan class="aw" x="18.14" y="0">O</tspan><tspan x="36.92" y="0">K 1</tspan></text><text class="ax" transform="translate(246.35 175.65)"><tspan class="av">D</tspan><tspan class="aw" x="18.14" y="0">O</tspan><tspan x="36.92" y="0">K 2</tspan></text><text class="ay" transform="translate(438.35 98.07)"><tspan class="av">D</tspan><tspan class="aw" x="18.14" y="0">O</tspan><tspan x="36.92" y="0">K 3</tspan></text><text class="az" transform="translate(630.35 20.49)"><tspan class="av">D</tspan><tspan class="aw" x="18.14" y="0">O</tspan><tspan x="36.92" y="0">K 4</tspan></text><polygon class="ba" points="208.87 216.25 372 216.25 372 198.25 192 198.25 192 342.25 208.87 342.25 208.87 216.25"/><text class="b" transform="translate(221.01 242.38)"><tspan class="c"><tspan class="bb">S</tspan><tspan class="bc" x="9.64" y="0">K</tspan><tspan class="bd" x="21.9" y="0">I</tspan><tspan class="h" x="27.35" y="0">L</tspan><tspan class="be" x="36.38" y="0">L</tspan><tspan x="45.91" y="0">S &amp; </tspan><tspan class="bf" x="0" y="21.6">C</tspan><tspan class="bg" x="11.51" y="21.6">O</tspan><tspan x="25.85" y="21.6">N</tspan><tspan class="bh" x="39.46" y="21.6">C</tspan><tspan class="i" x="51.21" y="21.6">E</tspan><tspan class="bi" x="61.27" y="21.6">P</tspan><tspan class="g" x="72.48" y="21.6">T</tspan><tspan x="83.08" y="21.6">S</tspan></tspan><tspan class="r"><tspan x="0" y="42.6">· </tspan><tspan class="bj" x="6.52" y="42.6">C</tspan><tspan class="aj" x="15.95" y="42.6">o</tspan><tspan class="bk" x="23.63" y="42.6">m</tspan><tspan class="bl" x="35" y="42.6">p</tspan><tspan class="bk" x="42.59" y="42.6">a</tspan><tspan class="at" x="49.57" y="42.6">r</tspan><tspan x="54.95" y="42.6">e</tspan><tspan x="0" y="59.4">· </tspan><tspan class="bm" x="6.52" y="59.4">B</tspan><tspan class="bn" x="15.41" y="59.4">a</tspan><tspan class="bo" x="22.35" y="59.4">s</tspan><tspan class="bp" x="28.11" y="59.4">i</tspan><tspan x="31.48" y="59.4">c </tspan><tspan class="at" x="40.72" y="59.4">r</tspan><tspan class="bq" x="46.09" y="59.4">e</tspan><tspan class="bn" x="53.26" y="59.4">a</tspan><tspan class="br" x="60.2" y="59.4">s</tspan><tspan class="bs" x="66.19" y="59.4">o</tspan><tspan class="af" x="73.87" y="59.4">n</tspan><tspan class="bt" x="81.44" y="59.4">i</tspan><tspan class="bu" x="84.76" y="59.4">n</tspan><tspan x="92.43" y="59.4">g</tspan></tspan></text><polygon class="bv" points="401.83 138.5 564 138.5 564 120.5 384 120.5 384 264.5 401.83 264.5 401.83 138.5"/><text class="b" transform="translate(414.01 164.63)"><tspan class="c"><tspan class="bw">S</tspan><tspan class="bx" x="9.73" y="0">T</tspan><tspan class="by" x="20.19" y="0">R</tspan><tspan class="bz" x="32.4" y="0">A</tspan><tspan class="ca" x="43.64" y="0">T</tspan><tspan class="e" x="54.15" y="0">E</tspan><tspan class="cb" x="63.94" y="0">G</tspan><tspan class="cc" x="76.87" y="0">I</tspan><tspan x="82.4" y="0">C </tspan><tspan class="cd" x="0" y="21.6">T</tspan><tspan class="bd" x="10.5" y="21.6">HI</tspan><tspan class="ce" x="29.36" y="21.6">N</tspan><tspan class="bc" x="42.88" y="21.6">K</tspan><tspan class="bd" x="55.14" y="21.6">I</tspan><tspan class="cf" x="60.59" y="21.6">N</tspan><tspan x="74.17" y="21.6">G</tspan></tspan><tspan class="r"><tspan x="0" y="42.6">· </tspan><tspan class="bt" x="6.52" y="42.6">P</tspan><tspan class="cg" x="14.81" y="42.6">l</tspan><tspan class="bk" x="18.08" y="42.6">an</tspan><tspan class="af" x="32.73" y="42.6">n</tspan><tspan class="bt" x="40.3" y="42.6">i</tspan><tspan class="bu" x="43.62" y="42.6">n</tspan><tspan x="51.3" y="42.6">g</tspan><tspan x="0" y="59.4">· </tspan><tspan class="bj" x="6.52" y="59.4">C</tspan><tspan class="aj" x="15.95" y="59.4">o</tspan><tspan class="bk" x="23.63" y="59.4">m</tspan><tspan class="ch" x="35" y="59.4">p</tspan><tspan class="bj" x="42.63" y="59.4">l</tspan><tspan class="ci" x="46.06" y="59.4">e</tspan><tspan x="53.22" y="59.4">x </tspan><tspan class="at" x="62.98" y="59.4">r</tspan><tspan class="bq" x="68.36" y="59.4">e</tspan><tspan class="bn" x="75.52" y="59.4">a</tspan><tspan class="br" x="82.47" y="59.4">s</tspan><tspan class="bs" x="88.45" y="59.4">o</tspan><tspan class="af" x="96.13" y="59.4">n</tspan><tspan class="bt" x="103.7" y="59.4">i</tspan><tspan class="bu" x="107.02" y="59.4">n</tspan><tspan x="114.7" y="59.4">g</tspan></tspan></text><polygon class="cj" points="592.87 60.75 756 60.75 756 42.76 576 42.76 576 186.76 592.87 186.76 592.87 60.75"/><text class="b" transform="translate(605.91 86.89)"><tspan class="c"><tspan class="ck">E</tspan><tspan class="cl" x="10.43" y="0">X</tspan><tspan class="cd" x="23" y="0">TE</tspan><tspan class="cm" x="43.6" y="0">N</tspan><tspan class="cn" x="57.15" y="0">D</tspan><tspan class="co" x="70.57" y="0">E</tspan><tspan x="80.66" y="0">D </tspan><tspan class="cd" x="0" y="21.6">T</tspan><tspan class="bd" x="10.5" y="21.6">HI</tspan><tspan class="ce" x="29.36" y="21.6">N</tspan><tspan class="bc" x="42.88" y="21.6">K</tspan><tspan class="bd" x="55.14" y="21.6">I</tspan><tspan class="cf" x="60.59" y="21.6">N</tspan><tspan x="74.17" y="21.6">G</tspan></tspan><tspan class="r"><tspan x="0" y="42.6">· </tspan><tspan class="cp" x="6.52" y="42.6">S</tspan><tspan class="cq" x="13.52" y="42.6">y</tspan><tspan class="ak" x="20.62" y="42.6">n</tspan><tspan class="cr" x="28.17" y="42.6">t</tspan><tspan class="z" x="33.21" y="42.6">h</tspan><tspan class="cs" x="40.96" y="42.6">e</tspan><tspan class="ct" x="48.24" y="42.6">s</tspan><tspan class="cu" x="54" y="42.6">i</tspan><tspan x="57.31" y="42.6">s </tspan><tspan class="ak" x="66.09" y="42.6">o</tspan><tspan x="73.64" y="42.6">f</tspan><tspan class="al" x="0" y="59.4" xml:space="preserve">  </tspan><tspan class="bt" x="6.8" y="59.4">i</tspan><tspan class="cv" x="10.12" y="59.4">n</tspan><tspan class="cw" x="17.71" y="59.4">f</tspan><tspan class="aj" x="22.27" y="59.4">o</tspan><tspan class="bq" x="29.94" y="59.4">r</tspan><tspan class="cv" x="35.41" y="59.4">m</tspan><tspan class="cx" x="46.71" y="59.4">a</tspan><tspan class="ah" x="53.57" y="59.4">t</tspan><tspan class="ai" x="58.54" y="59.4">i</tspan><tspan class="bs" x="61.91" y="59.4">o</tspan><tspan x="69.59" y="59.4">n</tspan><tspan x="0" y="76.2">· </tspan><tspan class="cy" x="6.52" y="76.2">I</tspan><tspan class="x" x="10.58" y="76.2">n</tspan><tspan class="cz" x="18.14" y="76.2">t</tspan><tspan class="ar" x="23.02" y="76.2">e</tspan><tspan class="ci" x="30.22" y="76.2">r</tspan><tspan class="am" x="35.69" y="76.2">p</tspan><tspan class="at" x="43.38" y="76.2">r</tspan><tspan class="da" x="48.76" y="76.2">e</tspan><tspan class="db" x="55.91" y="76.2">t</tspan><tspan class="cx" x="61.02" y="76.2">a</tspan><tspan class="dc" x="67.89" y="76.2">t</tspan><tspan class="dd" x="72.85" y="76.2">i</tspan><tspan class="aj" x="76.23" y="76.2">o</tspan><tspan x="83.9" y="76.2">n </tspan><tspan class="ak" x="94.39" y="76.2">o</tspan><tspan x="101.94" y="76.2">f </tspan><tspan class="de" x="109.36" y="76.2">d</tspan><tspan class="cx" x="116.92" y="76.2">a</tspan><tspan class="db" x="123.78" y="76.2">t</tspan><tspan x="128.9" y="76.2">a </tspan><tspan class="df" x="138.7" y="76.2" xml:space="preserve">    </tspan><tspan class="al" x="0" y="93" xml:space="preserve">  </tspan><tspan class="s" x="6.8" y="93">t</tspan><tspan x="11.69" y="93">o </tspan><tspan class="dg" x="22.18" y="93">s</tspan><tspan class="dh" x="28.17" y="93">o</tspan><tspan class="cw" x="35.79" y="93">l</tspan><tspan class="di" x="39.21" y="93">v</tspan><tspan x="46.1" y="93">e </tspan><tspan class="am" x="56.13" y="93">p</tspan><tspan class="dj" x="63.82" y="93">r</tspan><tspan class="dk" x="69.19" y="93">o</tspan><tspan class="dl" x="76.84" y="93">b</tspan><tspan class="bj" x="84.54" y="93">l</tspan><tspan class="ar" x="87.97" y="93">e</tspan><tspan x="95.16" y="93">m</tspan></tspan></text><line class="dm" x1="188.38" y1="414.81" x2="562.62" y2="269.69"/><polygon class="dn" points="194.71 423.06 175 420 187.5 404.46 194.71 423.06"/><polygon class="dn" points="563.5 280.05 576 264.5 556.29 261.45 563.5 280.05"/></svg>